<svg id="Layer_1" data-name="Layer 1" xmlns="http://www.w3.org/2000/svg" viewBox="0 0 155.69334 65.76172"><title>robot_face70</title><path d="M62.34377,67.8125h5.46875V32.26563H37.73439V2.1875H32.26564v0H2.18752V32.26563h0v5.46874H32.26564V67.8125h5.46875v0H62.34377ZM7.65627,7.65627H32.26564V32.26563H7.65627ZM37.73439,62.34373V37.73438H62.34377V62.34373Z" transform="translate(-2.18752 -2.11914)"/><rect x="5.46877" y="47.70345" width="54.68748" height="1.09375"/><rect x="35.54688" y="5.53711" width="24.60936" height="24.60938" style="fill:none"/><rect x="5.46877" y="35.61523" width="24.60936" height="24.60938" style="fill:none"/><path d="M67.81252,7.65625V2.1875H32.26564V62.34375H7.65628V37.73438L2.18752,32.26563v5.46875h0V67.8125H37.73439V37.73438H67.81252V32.26563h0V7.65625ZM62.34375,32.26563H37.73439V7.65625H62.34375Z" transform="translate(-2.18752 -2.11914)" style="fill:#f0f"/><rect x="13.67189" y="13.74024" width="8.20312" height="8.20312"/><rect x="45.11718" y="15.10742" width="5.46875" height="5.46875"/><rect x="17.22657" y="35.47852" width="1.45832" height="24.74609"/><rect x="47.30468" y="35.61523" width="1.09375" height="24.60938"/><path d="M152.40072,67.88086h5.48014V32.25993H127.74007V2.11914h-5.48014v0H92.11914V37.74007h30.14079V67.88086h5.48014v0h24.66065ZM97.59928,7.5993h24.66065V32.25993H97.59928Zm30.14079,54.8014V37.74007h24.66065V62.4007Z" transform="translate(-2.18752 -2.11914)" style="fill:#fff"/><rect x="95.41178" y="47.73433" width="54.80142" height="1.09603" style="fill:#fff"/><rect x="125.55255" y="5.48014" width="24.66063" height="24.66064" style="fill:none"/><rect x="95.41178" y="35.62093" width="24.66063" height="24.66064" style="fill:none"/><path d="M157.88086,7.59928V2.11914H122.25993V62.40072H97.5993V37.74007l-5.48016-5.48014v5.48014h0V67.88086h35.62091V37.74007h30.14079V32.25993h0V7.59928ZM152.4007,32.25993H127.74007V7.59928H152.4007Z" transform="translate(-2.18752 -2.11914)" style="fill:#fff"/><rect x="103.63199" y="13.70036" width="8.22021" height="8.22021" style="fill:#fff"/><rect x="135.1428" y="15.07039" width="5.48014" height="5.48014" style="fill:#fff"/><rect x="107.19408" y="35.48393" width="1.46136" height="24.79765" style="fill:#fff"/><rect x="137.33485" y="35.62093" width="1.09603" height="24.66064" style="fill:#fff"/><rect x="125.54688" y="5.53711" width="24.60936" height="24.60938" style="fill:none"/><rect x="95.46877" y="35.61523" width="24.60936" height="24.60938" style="fill:none"/><path d="M157.81252,7.65625V2.1875H122.26564V62.34375H97.65628V37.73438l-5.46876-5.46875v5.46875h0V67.8125h35.54686V37.73438h30.07813V32.26563h0V7.65625Zm-5.46877,24.60938H127.73439V7.65625h24.60936Z" transform="translate(-2.18752 -2.11914)" style="fill:#f0f"/></svg>